# xmcd CD database file
#
# Track frame offsets:
#	150
#	20682
#	41641
#	79796
#	100960
#	122650
#	137149
#	160046
#	195191
#	213240
#
# Disc length: 3259 seconds
#
# Revision: 13
# Processed by: cddbd v1.4PL0 Copyright (c) Steve Scherf et al.
# Submitted via: CDex 1.40Beta9
#
DISCID=7d0cb90a
DTITLE=Buddy Guy - Damn Right, I've Got The Blues
DYEAR=1991
DGENRE=Blues
TTITLE0=Damn Right, I've Got The Blues
TTITLE1=Where Is The Next One Coming From
TTITLE2=Five Long Years
TTITLE3=Mustang Sally
TTITLE4=There Is Something On Your MInd
TTITLE5=Early In The Morning
TTITLE6=Too Broke To Spend The Night
TTITLE7=Black Night
TTITLE8=Let Me Love You Baby
TTITLE9=Rememberin' Stevie
EXTD=Richard Galliano (accordйon) and Jean-Charles Capon (violoncelle) YEAR: 1991 ID3G: 0
EXTT0=©1994 Liar's Club Music and Charlatan Record Company (BMI]\n\n24179-0614
EXTT1=1999\nThe 13th Warrior\nJerry Goldsmith\nLyndhurst Studio, London Orchestra\nVarйse Sarabande VSD-6038\n\nsubmited by Timothy Turner
EXTT2=(p)1999 Mandarim Records\n(c)1999 Under licence of Countdown Music\n\nAs mъsicas premiadas dos anos 90
EXTT3=Bo Skovhus (barytone) and Niels-Henning Шrsted Pedersen (double bass)
EXTT4=Алексей Рыбников\n
EXTT4=\n
EXTT4=Либретто Павла Грушко\n
EXTT4=По мотивам драматической кантаты Пабло Неруды\n
EXTT4=\n
EXTT4=ЗВЕЗДА И СМЕРТЬ ХОАКИНА МУРЬЕТЫ\n
EXTT4=\n
EXTT4=Рок-опера\n
EXTT4=\n
EXTT4=Звезда, Тереса - Ж.Рожденственская;\n
EXTT4=Хоакин Мурьета, Смерть - Г.Трофимов;\n
EXTT4=Блаженный-Заика, Шарманщик - Ф.Иванов;\n
EXTT4=Трехпалый - АПаранин;\n
EXTT4=Чилийцы, Рейнлжеры - С.Беликов, Ф.Иванов, А.Паранин,\n
EXTT4=                              В.Кривопущенко, В.Наумов, А.Курдюмов,\n
EXTT4=                              Г.Трофимов, А.Садо;\n
EXTT4=Девочка-чилийка - Оля Рожденственская;\n
EXTT4=Девицы - ЖРожденственская, Е.Шанина\n
EXTT4=\n
EXTT4=Инструментальный ансамбль театра Ленинского комсомола ("Аракс"): \n
EXTT4=ЮШахназаров - гитара, соло - С.Рудницкий - акустическая гитара, бас-гитара,\n
EXTT4=рояль, орган, синтезатор - С.Беликов - бас-гитара, флейта - А.Абрамов -\n
EXTT4=ударные - В.Голутвин - акустическая гитара, банджо.\n
EXTT4=\n
EXTT4=Струнная группа Государственного симфонического оркестра СССР, медная\n
EXTT4=группа Эстрадно-симфонического оркестра Центрального телевидения\n
EXTT4=и Всесоюзного радио, струнный квартет Большого театра СССР,\n
EXTT4=московский Камерный хор, хормейстер - Т.Агаева.\n
EXTT4=\n
EXTT4=Режиссер - Ф.Иванов\n
EXTT4=Дирижер и постановщик - А.Рыбников\n
EXTT4=Звукорежиссеры - Н.Данилин, С.Богданов\n
EXTT4=Редактор - А.Качалина
EXTT5=A paixгo segundo Sгo Mateus - Primeira parte (Inнcio)
EXTT6=A paixгo segundo Sгo Mateus - Primeira parte (Inнcio)
EXTT7=1995 - Les disques Pingouin
EXTT8=A paixгo segundo Sгo Mateus - Primeira parte (Inнcio)
EXTT9=Universal Music, a divison of Universal Studios Canada Ltd.\nUMSSD 81061
PLAYORDER=
